<?xml version="1.0" encoding="UTF-8" standalone="no"?><svg xmlns="http://www.w3.org/2000/svg" xmlns:xlink="http://www.w3.org/1999/xlink" contentStyleType="text/css" height="311px" preserveAspectRatio="none" style="width:345px;height:311px;background:#FFFFFF;" version="1.1" viewBox="0 0 345 311" width="345px" zoomAndPan="magnify"><defs/><g><g id="elem_Projectron"><rect fill="#3CB371" height="47.2188" style="stroke:#181818;stroke-width:0.5;" width="81" x="132" y="7"/><text fill="#000000" font-family="sans-serif" font-size="14" lengthAdjust="spacing" textLength="65" x="140" y="23.5332">Projectron</text><line style="stroke:#181818;stroke-width:0.5;" x1="133" x2="212" y1="28.6094" y2="28.6094"/><text fill="#000000" font-family="sans-serif" font-size="14" lengthAdjust="spacing" textLength="69" x="138" y="47.1426">Application</text></g><g id="elem_Project"><rect fill="#F1F1F1" height="47.2188" style="stroke:#181818;stroke-width:0.5;" width="87" x="251" y="132"/><text fill="#000000" font-family="sans-serif" font-size="14" lengthAdjust="spacing" textLength="44" x="272.5" y="148.5332">Project</text><line style="stroke:#181818;stroke-width:0.5;" x1="252" x2="337" y1="153.6094" y2="153.6094"/><text fill="#000000" font-family="sans-serif" font-size="14" lengthAdjust="spacing" textLength="75" x="257" y="172.1426">Shape Tree</text></g><g id="elem_Task"><rect fill="#F1F1F1" height="47.2188" style="stroke:#181818;stroke-width:0.5;" width="87" x="128" y="257"/><text fill="#000000" font-family="sans-serif" font-size="14" lengthAdjust="spacing" textLength="31" x="156" y="273.5332">Task</text><line style="stroke:#181818;stroke-width:0.5;" x1="129" x2="214" y1="278.6094" y2="278.6094"/><text fill="#000000" font-family="sans-serif" font-size="14" lengthAdjust="spacing" textLength="75" x="134" y="297.1426">Shape Tree</text></g><g id="elem_Contact"><rect fill="#F1F1F1" height="47.2188" style="stroke:#181818;stroke-width:0.5;" width="87" x="7" y="132"/><text fill="#000000" font-family="sans-serif" font-size="14" lengthAdjust="spacing" textLength="49" x="26" y="148.5332">Contact</text><line style="stroke:#181818;stroke-width:0.5;" x1="8" x2="93" y1="153.6094" y2="153.6094"/><text fill="#000000" font-family="sans-serif" font-size="14" lengthAdjust="spacing" textLength="75" x="13" y="172.1426">Shape Tree</text></g><!--MD5=[1c1d8b1fabf900a16dcd33048d40b321]
link Projectron to Project--><g id="link_Projectron_Project"><path codeLine="20" d="M194.88,54.06 C215.56,74.91 246.29,105.9 268.15,127.94 " fill="none" id="Projectron-to-Project" style="stroke:#181818;stroke-width:1.0;"/><polygon fill="#181818" points="271.85,131.67,268.333,122.4705,268.3216,128.1273,262.6648,128.1159,271.85,131.67" style="stroke:#181818;stroke-width:1.0;"/><text fill="#000000" font-family="sans-serif" font-size="13" lengthAdjust="spacing" textLength="53" x="241.5" y="98.4951">manages</text></g><!--MD5=[67d81c6b6e2e3e848f464ed20ac9addb]
link Projectron to Contact--><g id="link_Projectron_Contact"><path codeLine="21" d="M150.12,54.06 C129.44,74.91 98.71,105.9 76.85,127.94 " fill="none" id="Projectron-to-Contact" style="stroke:#181818;stroke-width:1.0;"/><polygon fill="#181818" points="73.15,131.67,82.3352,128.1159,76.6784,128.1273,76.667,122.4705,73.15,131.67" style="stroke:#181818;stroke-width:1.0;"/><text fill="#000000" font-family="sans-serif" font-size="13" lengthAdjust="spacing" textLength="32" x="120.5" y="98.4951">reads</text></g><!--MD5=[d2c2363b7bdb2ef90d73c21b4293bde0]
link Project to Task--><g id="link_Project_Task"><path codeLine="22" d="M271.94,179.06 C251.09,199.91 220.1,230.9 198.06,252.94 " fill="none" id="Project-to-Task" style="stroke:#181818;stroke-width:1.0;"/><polygon fill="#181818" points="194.33,256.67,203.5224,253.1345,197.8655,253.1345,197.8655,247.4776,194.33,256.67" style="stroke:#181818;stroke-width:1.0;"/><text fill="#000000" font-family="sans-serif" font-size="13" lengthAdjust="spacing" textLength="49" x="240.5" y="223.4951">contains</text></g><!--MD5=[ae4b1b71eb317da752f325fb1afab916]
link Task to Task--><g id="link_Task_Task"><path codeLine="23" d="M215.09,269.01 C233.9,268.07 250,271.9 250,280.5 C250,288.29 236.78,292.17 220.3,292.12 " fill="none" id="Task-to-Task" style="stroke:#181818;stroke-width:1.0;"/><polygon fill="#181818" points="215.09,291.99,223.9721,296.2454,220.088,292.1328,224.2006,288.2487,215.09,291.99" style="stroke:#181818;stroke-width:1.0;"/><text fill="#000000" font-family="sans-serif" font-size="13" lengthAdjust="spacing" textLength="49" x="256" y="285.9951">contains</text></g><!--MD5=[d339d393908fdc7cfa7cfb17a723e112]
reverse link Contact to Project--><g id="link_Contact_Project"><path codeLine="25" d="M99.15,155.5 C143.42,155.5 208.2,155.5 250.84,155.5 " fill="none" id="Contact-backto-Project" style="stroke:#181818;stroke-width:1.0;"/><polygon fill="#181818" points="94.12,155.5,103.12,159.5,99.12,155.5,103.12,151.5,94.12,155.5" style="stroke:#181818;stroke-width:1.0;"/><text fill="#000000" font-family="sans-serif" font-size="13" lengthAdjust="spacing" textLength="120" x="112.5" y="148.9951">has Project Manager</text></g><!--MD5=[5d1a9890f0490ccef4a2ed63a9331123]
link Task to Contact--><g id="link_Task_Contact"><path codeLine="26" d="M149.04,256.67 C128.44,235.73 97.95,204.73 76.35,182.78 " fill="none" id="Task-to-Contact" style="stroke:#181818;stroke-width:1.0;"/><polygon fill="#181818" points="72.69,179.06,76.1325,188.2876,76.1896,182.6311,81.8462,182.6882,72.69,179.06" style="stroke:#181818;stroke-width:1.0;"/><text fill="#000000" font-family="sans-serif" font-size="13" lengthAdjust="spacing" textLength="79" x="119.5" y="223.4951">has Assignee</text></g><!--MD5=[f64d7b299543d045acb437938678e7d8]
@startuml

hide empty fields
hide empty methods

object Projectron #MediumSeaGreen {
    Application
}

object Project {
    Shape Tree
}
object Task {
    Shape Tree
}

object Contact {
    Shape Tree
}

Projectron - -> Project:manages
Projectron - -> Contact:reads
Project - -> Task:contains
Task- ->Task:contains

Project -left-> Contact:has Project Manager
Task - -> Contact:has Assignee

@enduml

PlantUML version 1.2022.5(Sat Apr 30 11:55:52 BST 2022)
(GPL source distribution)
Java Runtime: OpenJDK Runtime Environment
JVM: OpenJDK 64-Bit Server VM
Default Encoding: Cp1252
Language: en
Country: GB
--></g></svg>